Coordinates
version=1
nRows=16
nColumns=40
inDegrees=yes

Units are S.I. units (second, meters, Newtons, ...)
Angles are in degrees.

endheader
time	pelvis_tilt	pelvis_list	pelvis_rotation	pelvis_tx	pelvis_ty	pelvis_tz	hip_flexion_r	hip_adduction_r	hip_rotation_r	knee_angle_r	knee_angle_r_beta	ankle_angle_r	subtalar_angle_r	mtp_angle_r	hip_flexion_l	hip_adduction_l	hip_rotation_l	knee_angle_l	knee_angle_l_beta	ankle_angle_l	subtalar_angle_l	mtp_angle_l	lumbar_extension	lumbar_bending	lumbar_rotation	arm_flex_r	arm_add_r	arm_rot_r	elbow_flex_r	pro_sup_r	wrist_flex_r	wrist_dev_r	arm_flex_l	arm_add_l	arm_rot_l	elbow_flex_l	pro_sup_l	wrist_flex_l	wrist_dev_l
      0.00000000	      1.05488327	     -6.13345851	     -0.43058543	     -1.07089784	      0.89460434	     -1.01344126	      5.43847529	      7.58155430	    -13.18591078	    -20.24220797	     -0.35329318	      8.93912288	      1.19744281	     -4.13543412	     12.26246841	      9.38615271	      4.49921378	    -53.51834947	     -0.93407141	      2.54949478	      1.49843746	    -16.48291881	     -9.74826411	      7.77562697	     -0.09771943	     13.26872807	    -11.08786387	     23.45666466	     15.12206344	     89.95437384	      0.00000000	      0.00000000	      8.05948942	     10.75672407	    -17.29673978	     22.10919255	     89.95437384	      0.00000000	      0.00000000
      0.01000000	      1.10765046	     -5.92195053	     -0.39926265	     -1.06482299	      0.89486634	     -1.01300139	      4.94602131	      7.43262551	    -12.88136488	    -20.25212370	     -0.35346624	      9.24558996	      1.13668846	     -4.13474706	     13.24531986	      8.91706306	      4.22049038	    -53.06488324	     -0.92615693	      3.13376240	      1.17871578	    -16.36432192	     -9.75508712	      7.52269128	      0.18928011	     13.74548014	    -11.14607761	     23.31070813	     15.21172230	     89.95437384	      0.00000000	      0.00000000	      7.71767353	     10.85308353	    -16.89201193	     22.49953139	     89.95437384	      0.00000000	      0.00000000
      0.02000000	      1.03998391	     -5.75907847	     -0.46425992	     -1.05857245	      0.89495999	     -1.01250896	      4.60066966	      7.28256171	    -12.80734184	    -20.32289116	     -0.35470136	      9.38192291	      1.05930344	     -4.09171989	     14.22224772	      8.50196178	      4.00372787	    -52.33188500	     -0.91336370	      3.51733722	      1.02026322	    -16.13143542	     -9.60943019	      7.31542202	      0.63175728	     14.05573551	    -11.30059448	     23.15150697	     15.46734352	     89.95437384	      0.00000000	      0.00000000	      7.40168463	     10.86489545	    -16.58179822	     22.80257499	     89.95437384	      0.00000000	      0.00000000
      0.03000000	      1.48632348	     -5.37205732	     -0.52099044	     -1.05204495	      0.89585902	     -1.01221140	      3.49510460	      6.95068579	    -12.41506428	    -20.06612807	     -0.35022000	      9.71997928	      0.90778510	     -4.15035987	     14.49400420	      7.82146910	      3.93549514	    -51.34009563	     -0.89605371	      4.57652641	      0.78157972	    -16.21542411	    -10.07688846	      6.85302959	      0.88624439	     14.53954142	    -11.25994461	     22.43953145	     15.66652476	     89.95437384	      0.00000000	      0.00000000	      6.99079851	     10.68638363	    -14.72726049	     23.14345423	     89.95437384	      0.00000000	      0.00000000
      0.04000000	      1.38020968	     -5.14609220	     -0.53652667	     -1.04619074	      0.89580517	     -1.01190501	      3.18707135	      6.76270051	    -12.08575854	    -20.07648848	     -0.35040083	      9.95342862	      0.90577672	     -4.16114222	     15.50421125	      7.38190277	      3.87421103	    -50.41179283	     -0.87985177	      5.03737399	      0.67340878	    -15.99919478	     -9.96009592	      6.57413918	      1.19396476	     14.87858238	    -11.37474565	     22.19928177	     15.99731607	     89.95437384	      0.00000000	      0.00000000	      6.72510912	     10.65290309	    -14.34221638	     23.38309719	     89.95437384	      0.00000000	      0.00000000
      0.05000000	      1.55959818	     -4.89663448	     -0.65540546	     -1.03999883	      0.89610141	     -1.01144738	      2.46496182	      6.54726423	    -11.86340636	    -19.93940074	     -0.34800819	     10.28862931	      0.83793931	     -4.24740613	     16.02906101	      6.92439287	      3.95952101	    -49.19729007	     -0.85865469	      5.37974578	      1.19711860	    -15.83865702	    -10.16701563	      6.24763029	      1.57287798	     15.24888671	    -11.41009897	     21.61761119	     16.31006157	     89.95437384	      0.00000000	      0.00000000	      6.43763122	     10.56047327	    -13.63888141	     23.61979586	     89.95437384	      0.00000000	      0.00000000
      0.06000000	      1.38703172	     -4.80524700	     -0.66727876	     -1.03402971	      0.89571605	     -1.01104250	      2.22529274	      6.48096689	    -11.90399263	    -19.94704916	     -0.34814168	     10.37371706	      0.77978886	     -4.21320969	     17.07744897	      6.72118811	      4.02662816	    -48.11503849	     -0.83976584	      5.58326262	      1.21751867	    -15.56928850	     -9.96187880	      6.10778483	      1.84518861	     15.55467020	    -11.51338507	     21.45644677	     16.67709339	     89.95437384	      0.00000000	      0.00000000	      6.15053494	     10.52564642	    -13.54195773	     23.79232952	     89.95437384	      0.00000000	      0.00000000
      0.07000000	      1.22505330	     -4.67186012	     -0.70455072	     -1.02804506	      0.89531759	     -1.01073960	      1.91794043	      6.36739481	    -11.87294028	    -19.84085131	     -0.34628818	     10.60901071	      0.74640737	     -4.20667373	     18.04908198	      6.46623110	      4.10711320	    -46.87293540	     -0.81808705	      5.87528568	      1.24201875	    -15.33834400	     -9.78174453	      5.92606233	      2.11112407	     15.85309709	    -11.59771987	     21.27597777	     17.04430857	     89.95437384	      0.00000000	      0.00000000	      5.87379694	     10.47192958	    -13.42625458	     23.92031711	     89.95437384	      0.00000000	      0.00000000
      0.08000000	      1.52521451	     -4.10007591	     -0.87820725	     -1.02190653	      0.89569866	     -1.01062775	      0.96785928	      5.83785519	    -11.10155899	    -19.57181231	     -0.34159257	     11.28241312	      0.80095487	     -4.33884395	     18.18719166	      5.57376167	      4.18694670	    -45.17902729	     -0.78852278	      6.60051986	      1.63368776	    -15.17028153	    -10.18104895	      5.22627011	      2.45807333	     16.17672546	    -11.60638421	     20.71209836	     17.54325342	     89.95437384	      0.00000000	      0.00000000	      5.63978307	     10.39913892	    -13.05075374	     24.13790025	     89.95437384	      0.00000000	      0.00000000
      0.09000000	      1.39597860	     -4.10277930	     -0.88645400	     -1.01583946	      0.89518312	     -1.01029530	      0.63308369	      5.84966146	    -11.32149306	    -19.50024812	     -0.34034353	     11.40588824	      0.74947730	     -4.33110268	     19.05872712	      5.51105179	      4.34835679	    -43.79195569	     -0.76431381	      6.73510922	      1.74992054	    -14.93062818	    -10.03964426	      5.17302926	      2.70829885	     16.45472310	    -11.66280132	     20.53425947	     17.88245775	     89.95437384	      0.00000000	      0.00000000	      5.34958541	     10.32592222	    -12.97921176	     24.27837660	     89.95437384	      0.00000000	      0.00000000
      0.10000000	      1.86396380	     -3.61345105	     -0.93099020	     -1.00943640	      0.89576024	     -1.01041959	     -0.55342170	      5.31758517	    -11.12613392	    -19.11664873	     -0.33364846	     11.75746523	      0.91002723	     -4.55159460	     18.85899341	      4.73484357	      4.42643578	    -41.75546168	     -0.72877029	      6.94408783	      2.06793819	    -14.79098556	    -10.59697439	      4.58187290	      2.89489254	     16.78696926	    -11.59943498	     19.93959101	     18.30265376	     89.95437384	      0.00000000	      0.00000000	      5.10573807	     10.22456383	    -12.56689841	     24.42623459	     89.95437384	      0.00000000	      0.00000000
      0.11000000	      1.89175080	     -3.45049385	     -0.90710682	     -1.00338121	      0.89547328	     -1.01048823	     -1.13324694	      5.12004659	    -11.26713595	    -18.91314441	     -0.33009664	     11.91805775	      1.14994733	     -4.76719863	     19.34034402	      4.38775280	      4.44721072	    -39.99815370	     -0.69809948	      6.79216247	      1.87642212	    -14.68644979	    -10.66945954	      4.36462861	      3.01582820	     17.09153589	    -11.59988037	     19.71043355	     18.67335906	     89.95437384	      0.00000000	      0.00000000	      4.79928273	     10.12305653	    -12.42053406	     24.57675614	     89.95437384	      0.00000000	      0.00000000
      0.12000000	      1.60396605	     -3.54039264	     -0.87378828	     -0.99748017	      0.89452601	     -1.01039222	     -1.29730839	      5.22082975	    -11.44427693	    -18.84966712	     -0.32898875	     12.06294860	      1.17232676	     -4.77533512	     20.30648073	      4.41088612	      4.55930980	    -38.51664792	     -0.67224232	      6.71821329	      1.75916650	    -14.47068793	    -10.38204479	      4.42889796	      3.11513064	     17.35818781	    -11.61844437	     19.65064203	     19.07699944	     89.95437384	      0.00000000	      0.00000000	      4.45750868	     10.02311239	    -12.38585306	     24.67695368	     89.95437384	      0.00000000	      0.00000000
      0.13000000	      1.33099076	     -3.58100921	     -0.86769491	     -0.99171886	      0.89363038	     -1.01037972	     -1.47099287	      5.26945457	    -11.50099723	    -18.76288324	     -0.32747409	     12.29459220	      1.21324128	     -4.80236736	     21.14413268	      4.31894420	      4.51933512	    -36.85946287	     -0.64331899	      6.43469666	      1.49190386	    -14.26472243	    -10.15645835	      4.44112383	      3.21823839	     17.62612105	    -11.62524978	     19.62427159	     19.50167238	     89.95437384	      0.00000000	      0.00000000	      4.12069346	      9.91560740	    -12.32853326	     24.76696573	     89.95437384	      0.00000000	      0.00000000
      0.14000000	      1.25961416	     -3.34006142	     -0.84579437	     -0.98595986	      0.89314373	     -1.01065782	     -1.89242533	      5.00027388	    -11.26529918	    -18.66002512	     -0.32567888	     12.62889836	      1.43371714	     -4.93771972	     21.53868520	      3.83019084	      4.23818125	    -34.77269564	     -0.60689803	      5.43902571	      0.64481500	    -14.09643270	    -10.19233808	      4.13790763	      3.27726029	     17.87337999	    -11.64309262	     19.69642914	     20.04568366	     89.95437384	      0.00000000	      0.00000000	      3.85617776	      9.78323335	    -12.07988485	     24.83009650	     89.95437384	      0.00000000	      0.00000000
      0.15000000	      1.00877222	     -3.49625449	     -0.81401189	     -0.98005506	      0.89215889	     -1.01065138	     -2.09921974	      5.15732679	    -11.49222134	    -18.58341169	     -0.32434172	     12.79551913	      1.46187453	     -4.96256787	     22.33748705	      3.97157910	      4.51560931	    -33.19097439	     -0.57929179	      5.09054486	      0.46523359	    -13.90206704	     -9.97002636	      4.28273872	      3.30551324	     18.14512254	    -11.60943652	     19.72155849	     20.40814508	     89.95437384	      0.00000000	      0.00000000	      3.53314643	      9.63867256	    -12.01165469	     24.76351811	     89.95437384	      0.00000000	      0.00000000
